<svg width="25" height="25" viewBox="0 0 25 25" fill="none" xmlns="http://www.w3.org/2000/svg">
<path fill-rule="evenodd" clip-rule="evenodd" d="M18.75 1.31592H6.25V2.63171H18.75V1.31592ZM22.5 2.63171C23.1904 2.63171 23.75 3.22081 23.75 3.9475V22.3685C23.75 23.0953 23.1904 23.6843 22.5 23.6843H2.5C1.80965 23.6843 1.25 23.0953 1.25 22.3685V3.9475C1.25 3.22081 1.80965 2.63171 2.5 2.63171V1.31592C1.11929 1.31592 0 2.49412 0 3.9475V22.3685C0 23.822 1.11929 25.0001 2.5 25.0001H22.5C23.8808 25.0001 25 23.822 25 22.3685V3.9475C25 2.49412 23.8808 1.31592 22.5 1.31592V2.63171Z" fill="#FF3B2F"/>
<path d="M20 0.657895C20 0.294553 20.2799 0 20.625 0C20.9701 0 21.25 0.294553 21.25 0.657895V3.28947C21.25 3.65282 20.9701 3.94737 20.625 3.94737C20.2799 3.94737 20 3.65282 20 3.28947V0.657895Z" fill="#FF3B2F"/>
<path d="M3.75 0.657895C3.75 0.294553 4.02983 0 4.375 0C4.72018 0 5 0.294553 5 0.657895V3.28947C5 3.65282 4.72018 3.94737 4.375 3.94737C4.02983 3.94737 3.75 3.65282 3.75 3.28947V0.657895Z" fill="#FF3B2F"/>
<path fill-rule="evenodd" clip-rule="evenodd" d="M23.75 7.89465H1.25V6.57886H23.75V7.89465Z" fill="#FF3B2F"/>
<path fill-rule="evenodd" clip-rule="evenodd" d="M6.25 11.8422H3.75V13.1579H6.25V11.8422ZM3.75 10.5264C3.05965 10.5264 2.5 11.1154 2.5 11.8422V13.1579C2.5 13.8847 3.05965 14.4737 3.75 14.4737H6.25C6.94035 14.4737 7.5 13.8847 7.5 13.1579V11.8422C7.5 11.1154 6.94035 10.5264 6.25 10.5264H3.75Z" fill="#FF3B2F"/>
<path fill-rule="evenodd" clip-rule="evenodd" d="M13.75 11.8422H11.25V13.1579H13.75V11.8422ZM11.25 10.5264C10.5596 10.5264 10 11.1154 10 11.8422V13.1579C10 13.8847 10.5596 14.4737 11.25 14.4737H13.75C14.4404 14.4737 15 13.8847 15 13.1579V11.8422C15 11.1154 14.4404 10.5264 13.75 10.5264H11.25Z" fill="#FF3B2F"/>
<path fill-rule="evenodd" clip-rule="evenodd" d="M21.25 11.8422H18.75V13.1579H21.25V11.8422ZM18.75 10.5264C18.0596 10.5264 17.5 11.1154 17.5 11.8422V13.1579C17.5 13.8847 18.0596 14.4737 18.75 14.4737H21.25C21.9404 14.4737 22.5 13.8847 22.5 13.1579V11.8422C22.5 11.1154 21.9404 10.5264 21.25 10.5264H18.75Z" fill="#FF3B2F"/>
<path fill-rule="evenodd" clip-rule="evenodd" d="M6.25 18.421H3.75V19.7368H6.25V18.421ZM3.75 17.1052C3.05965 17.1052 2.5 17.6943 2.5 18.421V19.7368C2.5 20.4635 3.05965 21.0526 3.75 21.0526H6.25C6.94035 21.0526 7.5 20.4635 7.5 19.7368V18.421C7.5 17.6943 6.94035 17.1052 6.25 17.1052H3.75Z" fill="#FF3B2F"/>
<path fill-rule="evenodd" clip-rule="evenodd" d="M13.75 18.421H11.25V19.7368H13.75V18.421ZM11.25 17.1052C10.5596 17.1052 10 17.6943 10 18.421V19.7368C10 20.4635 10.5596 21.0526 11.25 21.0526H13.75C14.4404 21.0526 15 20.4635 15 19.7368V18.421C15 17.6943 14.4404 17.1052 13.75 17.1052H11.25Z" fill="#FF3B2F"/>
<path fill-rule="evenodd" clip-rule="evenodd" d="M21.25 18.421H18.75V19.7368H21.25V18.421ZM18.75 17.1052C18.0596 17.1052 17.5 17.6943 17.5 18.421V19.7368C17.5 20.4635 18.0596 21.0526 18.75 21.0526H21.25C21.9404 21.0526 22.5 20.4635 22.5 19.7368V18.421C22.5 17.6943 21.9404 17.1052 21.25 17.1052H18.75Z" fill="#FF3B2F"/>
</svg>
