<svg width="30" height="30" viewBox="0 0 30 30" fill="none" xmlns="http://www.w3.org/2000/svg">
<path d="M21.2324 6.86755H13.9964V22.4614H21.2324V6.86755Z" fill="#0A84FF"/>
<path d="M24.1417 6.86755H22.7113V22.4614H24.1417C24.9706 22.4614 25.6426 21.8044 25.6426 20.9941V8.33483C25.6426 7.52452 24.9706 6.86755 24.1417 6.86755Z" fill="#0A84FF"/>
<path d="M16.0564 3.95014C16.0564 3.85055 16.1394 3.76943 16.2412 3.76943H18.9877C19.0896 3.76943 19.1726 3.85055 19.1726 3.95014V5.42176H21.2853V3.95014C21.2853 2.71156 20.2547 1.70398 18.9877 1.70398H16.2412C14.9743 1.70398 13.9437 2.71156 13.9437 3.95014V5.42176H16.0564V3.95014Z" fill="#0A84FF"/>
<path d="M12.5176 6.86755H11.0872C10.2582 6.86755 9.5863 7.52452 9.5863 8.33483V20.994C9.5863 21.8044 10.2583 22.4613 11.0872 22.4613H12.5176V6.86755Z" fill="#0A84FF"/>
<path d="M28.9437 23.8555H10.0264C8.54598 23.8555 7.34156 22.6781 7.34156 21.2307V4.6901C7.34156 2.10394 5.18935 0 2.544 0H1.05626C0.472905 0 0 0.462424 0 1.03273C0 1.60303 0.472905 2.06545 1.05626 2.06545H2.54389C4.02429 2.06545 5.22882 3.24283 5.22882 4.6902V21.2308C5.22882 23.817 7.38092 25.9209 10.0263 25.9209H28.9436C29.527 25.9209 30 25.4585 30 24.8882C30 24.3179 29.5271 23.8555 28.9437 23.8555Z" fill="#0A84FF"/>
<path d="M9.77114 29.9999C10.7337 29.9999 11.5141 29.237 11.5141 28.296C11.5141 27.3549 10.7337 26.592 9.77114 26.592C8.80854 26.592 8.0282 27.3549 8.0282 28.296C8.0282 29.237 8.80854 29.9999 9.77114 29.9999Z" fill="#0A84FF"/>
<path d="M25.4578 29.9999C26.4204 29.9999 27.2007 29.237 27.2007 28.296C27.2007 27.3549 26.4204 26.592 25.4578 26.592C24.4952 26.592 23.7148 27.3549 23.7148 28.296C23.7148 29.237 24.4952 29.9999 25.4578 29.9999Z" fill="#0A84FF"/>
</svg>
