<svg width="25" height="25" viewBox="0 0 25 25" fill="none" xmlns="http://www.w3.org/2000/svg">
<path fill-rule="evenodd" clip-rule="evenodd" d="M9.34606 1.98633C6.90103 6.76626 2.78663 14.8097 0.430762 19.4153C-0.169317 20.5884 -0.14076 22.0083 0.505944 23.1534C1.15265 24.2986 2.32213 25 3.5847 25H21.4153C22.6779 25 23.8474 24.2986 24.4941 23.1534C25.1408 22.0083 25.1693 20.5884 24.5692 19.4153C22.2134 14.8097 18.099 6.76626 15.6539 1.98633C15.028 0.762674 13.817 0 12.5 0C11.183 0 9.97205 0.762674 9.34606 1.98633ZM11.6769 3.31596C11.8403 2.99659 12.1563 2.79757 12.5 2.79757C12.8437 2.79757 13.1597 2.99659 13.3231 3.31596L22.2384 20.7449C22.3951 21.0511 22.3876 21.4216 22.2188 21.7205C22.05 22.0194 21.7449 22.2024 21.4153 22.2024C16.6136 22.2024 8.38639 22.2024 3.5847 22.2024C3.25515 22.2024 2.94997 22.0194 2.78117 21.7205C2.61242 21.4216 2.60495 21.0511 2.76156 20.7449L11.6769 3.31596ZM12.5 20.7249C13.2311 20.7249 13.8246 20.0981 13.8246 19.3261C13.8246 18.5541 13.2311 17.9273 12.5 17.9273C11.7689 17.9273 11.1754 18.5541 11.1754 19.3261C11.1754 20.0981 11.7689 20.7249 12.5 20.7249ZM13.8246 9.03101V15.2976C13.8246 16.0696 13.2311 16.6964 12.5 16.6964C11.7689 16.6964 11.1754 16.0696 11.1754 15.2976V9.03101C11.1754 8.25899 11.7689 7.63223 12.5 7.63223C13.2311 7.63223 13.8246 8.25899 13.8246 9.03101Z" fill="white"/>
</svg>
