<svg width="202" height="202" viewBox="0 0 202 202" fill="none" xmlns="http://www.w3.org/2000/svg">
<path d="M155.528 67.9511L43.7845 129.348C41.4135 130.65 39.6572 132.842 38.9019 135.439C38.1465 138.037 38.454 140.828 39.7567 143.199L59.4036 178.957C60.7063 181.328 62.8974 183.084 65.4951 183.84C68.0927 184.595 70.884 184.288 73.2549 182.985L144.771 143.691L147.792 133.303L158.18 136.323L184.999 121.588C187.37 120.285 189.126 118.094 189.881 115.497C190.637 112.899 190.329 110.108 189.027 107.737L169.38 71.9789C168.077 69.608 165.886 67.8517 163.288 67.0963C160.691 66.3409 157.899 66.6484 155.528 67.9511Z" fill="#348FD9"/>
<path d="M57.9296 158.195C57.018 161.33 57.3892 164.7 58.9616 167.562C60.5341 170.423 63.1789 172.543 66.3144 173.455L82.1944 178.073L126.892 153.514L145.017 91.1838L140.105 82.2443L149.045 77.3326L151.059 70.407L70.603 114.613L57.9296 158.195Z" fill="#256294"/>
<path d="M142.379 30.327L123.037 24.7025L103.694 19.0778C100.559 18.1661 97.1895 18.5373 94.3276 20.1097C91.4658 21.6821 89.3458 24.3269 88.434 27.4624L79.7885 57.1937L84.7002 66.1332L75.7607 71.045L51.0039 156.181C50.0924 159.317 50.4636 162.686 52.036 165.548C53.6085 168.41 56.2533 170.53 59.3887 171.442L78.7316 177.066L98.074 182.691C99.6265 183.142 101.253 183.284 102.86 183.106C104.467 182.929 106.024 182.438 107.441 181.659C108.858 180.88 110.108 179.83 111.119 178.569C112.13 177.307 112.883 175.859 113.335 174.306L138.091 89.1699L133.18 80.2304L142.119 75.3187L150.764 45.5876C151.216 44.035 151.357 42.4087 151.18 40.8015C151.003 39.1943 150.511 37.6378 149.733 36.2207C148.954 34.8036 147.904 33.5537 146.642 32.5425C145.381 31.5313 143.932 30.7784 142.379 30.327Z" fill="#4CB8EB"/>
<path d="M102.898 93.9587C98.6053 96.3174 95.4251 100.285 94.0573 104.988L85.1172 135.733L76.1777 140.645L83.1033 142.659L90.0289 144.673L93.4917 145.68L100.417 147.694L95.5056 138.754L104.446 108.009C105.123 105.68 105.335 103.241 105.069 100.83C104.804 98.4191 104.066 96.0843 102.898 93.9587Z" fill="#FF3B2F"/>
<path d="M70.038 129.471L88.3058 124.768L92.1658 111.494L72.0519 122.545L70.038 129.471Z" fill="#FF3B2F"/>
<path d="M102.554 114.515L113.606 134.628L111.592 141.554L98.5265 128.366L102.554 114.515Z" fill="#FF3B2F"/>
<path d="M138.189 121.121L142.659 118.665L146.343 125.37L141.873 127.826L138.189 121.121Z" fill="#E3E3E3"/>
<path d="M151.82 119.451L162.994 113.312L165.45 117.781L154.275 123.921L151.82 119.451Z" fill="#E3E3E3"/>
<path d="M167.464 110.856L178.638 104.716L181.094 109.186L169.92 115.325L167.464 110.856Z" fill="#E3E3E3"/>
<path d="M146.908 110.512L173.726 95.7765L176.182 100.246L149.364 114.982L146.908 110.512Z" fill="#E3E3E3"/>
<path d="M141.996 101.572L168.815 86.8371L171.27 91.3068L144.452 106.042L141.996 101.572Z" fill="#E3E3E3"/>
<path d="M143.789 88.9489L163.903 77.8975L166.359 82.3673L146.245 93.4187L143.789 88.9489Z" fill="#E3E3E3"/>
<path d="M90.9032 70.6064L92.3268 65.7106L99.2513 67.7242L97.8276 72.62L90.9032 70.6064Z" fill="#E3E3E3"/>
<path d="M104.752 74.6353L106.176 69.7395L113.101 71.753L111.677 76.6488L104.752 74.6353Z" fill="#E3E3E3"/>
<path d="M118.602 78.6641L120.025 73.7683L126.95 75.7818L125.526 80.6776L118.602 78.6641Z" fill="#E3E3E3"/>
<path d="M70.6733 131.94L84.608 128.353L82.9637 134.007L74.9498 138.41C74.5079 138.653 74.1479 139.022 73.9154 139.469C73.6829 139.917 73.5883 140.423 73.6435 140.924C73.6987 141.425 73.9013 141.899 74.2257 142.285C74.55 142.671 74.9816 142.952 75.4658 143.093L99.7055 150.142C100.19 150.283 100.705 150.277 101.186 150.125C101.666 149.973 102.091 149.682 102.407 149.288C102.722 148.895 102.914 148.417 102.958 147.914C103.001 147.412 102.895 146.908 102.652 146.466L98.2489 138.452L99.7649 133.239L109.781 143.349C110.093 143.664 110.483 143.893 110.911 144.011C111.338 144.13 111.79 144.135 112.22 144.025C112.65 143.916 113.044 143.696 113.364 143.387C113.683 143.079 113.916 142.693 114.04 142.266L116.054 135.341C116.148 135.019 116.177 134.682 116.14 134.349C116.104 134.016 116.002 133.694 115.841 133.401L105.297 114.212L106.895 108.72C107.673 106.071 107.918 103.294 107.615 100.549C107.313 97.8044 106.469 95.1471 105.133 92.7307C104.807 92.138 104.26 91.6989 103.61 91.5101C102.961 91.3213 102.263 91.3981 101.67 91.7238C99.2467 93.0468 97.1096 94.8374 95.3826 96.9918C93.6556 99.1463 92.3732 101.622 91.6094 104.275L90.0123 109.767L70.824 120.31C70.2314 120.636 69.7924 121.184 69.6037 121.833L67.5898 128.759C67.4642 129.191 67.4552 129.649 67.5636 130.085C67.6721 130.522 67.8942 130.922 68.2074 131.245C68.5205 131.568 68.9136 131.803 69.3467 131.925C69.7798 132.047 70.2375 132.052 70.6733 131.94ZM110.862 134.931L110.353 136.681L101.394 127.638L103.284 121.137L110.862 134.931ZM96.5062 105.699C97.4078 102.568 99.2551 99.7921 101.795 97.7513C102.845 100.836 102.916 104.17 101.998 107.296L93.0574 138.042C92.8685 138.692 92.9452 139.389 93.2708 139.982L95.2183 143.527L82.8006 139.916L86.3451 137.968C86.9377 137.643 87.3767 137.095 87.5654 136.445L96.5062 105.699ZM74.2051 124.272L87.9985 116.693L86.2634 122.661L73.7367 125.886L74.2051 124.272Z" fill="#4CB8EB"/>
<path d="M94.4251 55.8314L102.479 28.1329L107.375 29.5566L99.3209 57.255L94.4251 55.8314Z" fill="#E3E3E3"/>
<path d="M104.812 58.8529L112.866 31.1545L117.762 32.5782L109.708 60.2766L104.812 58.8529Z" fill="#E3E3E3"/>
<path d="M115.199 61.8745L123.254 34.1761L128.149 35.5998L120.095 63.2982L115.199 61.8745Z" fill="#E3E3E3"/>
<path d="M125.585 64.8964L128.606 54.5096L133.501 55.9332L130.481 66.3201L125.585 64.8964Z" fill="#E3E3E3"/>
<path d="M130.621 47.5849L133.642 37.198L138.537 38.6217L135.517 49.0085L130.621 47.5849Z" fill="#E3E3E3"/>
<path d="M58.5114 159.922L63.5454 142.61L68.4412 144.034L63.4072 161.345L58.5114 159.922Z" fill="#E3E3E3"/>
<path d="M68.8977 162.944L71.918 152.557L76.8138 153.981L73.7935 164.367L68.8977 162.944Z" fill="#E3E3E3"/>
<path d="M79.2847 165.965L82.3051 155.578L87.2009 157.002L84.1805 167.389L79.2847 165.965Z" fill="#E3E3E3"/>
<path d="M89.6718 168.987L92.6921 158.6L97.5879 160.024L94.5676 170.411L89.6718 168.987Z" fill="#E3E3E3"/>
<path d="M100.059 172.009L103.079 161.622L107.975 163.045L104.955 173.432L100.059 172.009Z" fill="#E3E3E3"/>
<path d="M122.217 95.8372L124.231 88.9128L129.127 90.3364L127.113 97.2609L122.217 95.8372Z" fill="#E3E3E3"/>
<path d="M118.188 109.686L120.202 102.762L125.098 104.186L123.084 111.11L118.188 109.686Z" fill="#E3E3E3"/>
<path d="M75.6344 101.062L82.6819 76.8262L87.5777 78.2498L80.5302 102.486L75.6344 101.062Z" fill="#E3E3E3"/>
</svg>
