<svg width="111" height="210" viewBox="0 0 111 210" fill="none" xmlns="http://www.w3.org/2000/svg">
<path d="M97.9412 0H13.0588C9.59541 0 6.27385 1.38281 3.82484 3.84422C1.37584 6.30564 0 9.64403 0 13.125V196.875C0 200.356 1.37584 203.694 3.82484 206.156C6.27385 208.617 9.59541 210 13.0588 210H97.9412C101.405 210 104.726 208.617 107.175 206.156C109.624 203.694 111 200.356 111 196.875V13.125C111 9.64403 109.624 6.30564 107.175 3.84422C104.726 1.38281 101.405 0 97.9412 0ZM27.75 6.5625H83.25V9.15469C83.25 10.0249 82.906 10.8595 82.2938 11.4749C81.6815 12.0902 80.8512 12.4359 79.9853 12.4359H31.0147C30.1489 12.4359 29.3185 12.0902 28.7062 11.4749C28.094 10.8595 27.75 10.0249 27.75 9.15469V6.5625ZM104.471 196.875C104.471 198.615 103.783 200.285 102.558 201.515C101.334 202.746 99.6729 203.438 97.9412 203.438H13.0588C11.3271 203.438 9.66634 202.746 8.44183 201.515C7.21733 200.285 6.52941 198.615 6.52941 196.875V13.125C6.52941 11.3845 7.21733 9.71532 8.44183 8.48461C9.66634 7.2539 11.3271 6.5625 13.0588 6.5625H21.2206V9.15469C21.2206 11.7654 22.2525 14.2692 24.0892 16.1153C25.926 17.9613 28.4171 18.9984 31.0147 18.9984H79.9853C82.5829 18.9984 85.074 17.9613 86.9108 16.1153C88.7475 14.2692 89.7794 11.7654 89.7794 9.15469V6.5625H97.9412C99.6729 6.5625 101.334 7.2539 102.558 8.48461C103.783 9.71532 104.471 11.3845 104.471 13.125V196.875Z" fill="#E3E3E3"/>
</svg>
