<svg width="36" height="36" viewBox="0 0 36 36" fill="none" xmlns="http://www.w3.org/2000/svg">
<path d="M26.5819 26.4397L23.7534 29.4374L18.6208 20.157L23.9962 14.897L26.5819 26.4397Z" fill="white"/>
<path d="M8.39828 9.28279L5.56981 12.2805L15.1325 16.8657L20.0716 11.1939L8.39828 9.28279Z" fill="white"/>
<path d="M10.2898 20.3872L21.6232 8.37556C22.7704 7.15973 24.8412 7.25062 26.2486 8.57858C27.656 9.90648 27.867 11.9686 26.7198 13.1844L15.3864 25.1961L16.5039 27.5116L13.3871 30.8149L10.643 25.0907L4.76909 22.6835L7.88592 19.3802L10.2898 20.3872Z" fill="white"/>
<path d="M10.2898 20.3871L21.6232 8.37548C22.7703 7.1597 24.8412 7.25053 26.2487 8.57849L10.6429 25.0906L4.76904 22.6834L7.88587 19.38L10.2898 20.3871Z" fill="white"/>
</svg>
