<svg width="24" height="30" viewBox="0 0 24 30" fill="none" xmlns="http://www.w3.org/2000/svg">
<path d="M22.4 30H1.6C1.17582 29.9995 0.769176 29.8329 0.469237 29.5369C0.169298 29.2409 0.000550358 28.8396 0 28.4211V1.57895C0.000550358 1.16035 0.169298 0.759056 0.469237 0.463064C0.769176 0.167071 1.17582 0.000543747 1.6 6.299e-07H16.0828C16.4898 -0.000358314 16.8816 0.152701 17.1781 0.427895L23.4969 6.29653C23.6554 6.44444 23.7817 6.62262 23.8682 6.82024C23.9547 7.01785 23.9995 7.23077 24 7.44603V28.4211C23.9995 28.8396 23.8307 29.2409 23.5308 29.5369C23.2308 29.8329 22.8242 29.9995 22.4 30ZM1.6 1.57895V28.4211H22.4V7.44603L16.0828 1.57895H1.6Z" fill="white"/>
<path d="M19.9204 8.68421H16.8C16.3759 8.68367 15.9692 8.51714 15.6693 8.22115C15.3693 7.92516 15.2006 7.52386 15.2 7.10526V0.789474C15.2 0.580092 15.2843 0.379287 15.4344 0.231232C15.5844 0.0831766 15.7879 0 16 0C16.2122 0 16.4157 0.0831766 16.5657 0.231232C16.7158 0.379287 16.8 0.580092 16.8 0.789474V7.10526H19.9204C20.1325 7.10526 20.336 7.18844 20.486 7.33649C20.6361 7.48455 20.7204 7.68536 20.7204 7.89474C20.7204 8.10412 20.6361 8.30492 20.486 8.45298C20.336 8.60103 20.1325 8.68421 19.9204 8.68421Z" fill="white"/>
<path d="M11.2 6.31589H5.59999C5.38781 6.31589 5.18433 6.23271 5.0343 6.08465C4.88427 5.9366 4.79999 5.73579 4.79999 5.52641C4.79999 5.31703 4.88427 5.11623 5.0343 4.96817C5.18433 4.82012 5.38781 4.73694 5.59999 4.73694H11.2C11.4122 4.73694 11.6156 4.82012 11.7657 4.96817C11.9157 5.11623 12 5.31703 12 5.52641C12 5.73579 11.9157 5.9366 11.7657 6.08465C11.6156 6.23271 11.4122 6.31589 11.2 6.31589Z" fill="white"/>
<path d="M18.4 11.0526H5.59999C5.38781 11.0526 5.18433 10.9694 5.0343 10.8213C4.88427 10.6733 4.79999 10.4725 4.79999 10.2631C4.79999 10.0537 4.88427 9.85292 5.0343 9.70486C5.18433 9.55681 5.38781 9.47363 5.59999 9.47363H18.4C18.6122 9.47363 18.8156 9.55681 18.9657 9.70486C19.1157 9.85292 19.2 10.0537 19.2 10.2631C19.2 10.4725 19.1157 10.6733 18.9657 10.8213C18.8156 10.9694 18.6122 11.0526 18.4 11.0526Z" fill="white"/>
<path d="M18.4 15.7895H5.59999C5.38781 15.7895 5.18433 15.7063 5.0343 15.5583C4.88427 15.4102 4.79999 15.2094 4.79999 15C4.79999 14.7907 4.88427 14.5899 5.0343 14.4418C5.18433 14.2937 5.38781 14.2106 5.59999 14.2106H18.4C18.6122 14.2106 18.8156 14.2937 18.9657 14.4418C19.1157 14.5899 19.2 14.7907 19.2 15C19.2 15.2094 19.1157 15.4102 18.9657 15.5583C18.8156 15.7063 18.6122 15.7895 18.4 15.7895Z" fill="white"/>
<path d="M18.4 20.5263H5.59999C5.38781 20.5263 5.18433 20.4432 5.0343 20.2951C4.88427 20.147 4.79999 19.9462 4.79999 19.7369C4.79999 19.5275 4.88427 19.3267 5.0343 19.1786C5.18433 19.0306 5.38781 18.9474 5.59999 18.9474H18.4C18.6122 18.9474 18.8156 19.0306 18.9657 19.1786C19.1157 19.3267 19.2 19.5275 19.2 19.7369C19.2 19.9462 19.1157 20.147 18.9657 20.2951C18.8156 20.4432 18.6122 20.5263 18.4 20.5263Z" fill="white"/>
<path d="M18.4 25.2632H5.59999C5.38781 25.2632 5.18433 25.18 5.0343 25.0319C4.88427 24.8839 4.79999 24.6831 4.79999 24.4737C4.79999 24.2643 4.88427 24.0635 5.0343 23.9154C5.18433 23.7674 5.38781 23.6842 5.59999 23.6842H18.4C18.6122 23.6842 18.8156 23.7674 18.9657 23.9154C19.1157 24.0635 19.2 24.2643 19.2 24.4737C19.2 24.6831 19.1157 24.8839 18.9657 25.0319C18.8156 25.18 18.6122 25.2632 18.4 25.2632Z" fill="white"/>
</svg>
