<svg width="60" height="60" viewBox="0 0 60 60" fill="none" xmlns="http://www.w3.org/2000/svg">
<g filter="url(#filter0_i_19_686)">
<path d="M51.2913 8.70796C46.0786 3.4952 39.1184 0.409594 31.612 0H29.9327C25.3371 0 20.7088 1.09771 16.5938 3.18937C11.6214 5.65785 7.44085 9.49711 4.49181 14.2293C1.57828 18.9615 0 24.4118 0 30.0014C0 33.8406 0.720875 37.5788 2.15989 41.1778C2.57221 42.2073 2.70874 43.1657 2.53671 44.1951L1.81584 51.2238C1.61105 53.1434 2.26093 55.0303 3.63441 56.3655C4.9724 57.7363 6.8565 58.4217 8.7761 58.2169L15.9767 57.4278C16.8341 57.2912 17.828 57.4277 18.8219 57.8401C22.3881 59.2791 26.1235 60 29.93 60H29.9982C35.5877 60 41.038 58.4572 45.7701 55.5081C50.535 52.5945 54.3414 48.3757 56.8453 43.406C58.937 39.2909 60.0347 34.6298 59.9992 29.9986V28.251C59.5868 20.8784 56.5013 13.9535 51.2913 8.70796ZM19.7476 33.2563C18.3413 33.2563 17.1754 32.0903 17.1754 30.684C17.1754 29.2777 18.3058 28.1118 19.7121 28.1118H19.7449C21.1511 28.1118 22.3171 29.2777 22.3171 30.684C22.3171 32.0903 21.1539 33.2563 19.7476 33.2563ZM30.0665 33.2563C28.6275 33.2563 27.4615 32.0903 27.4615 30.684C27.4615 29.2777 28.6275 28.1118 30.0337 28.1118H30.0692C31.4755 28.1118 32.6414 29.2777 32.6414 30.684C32.6414 32.0903 31.4727 33.2563 30.0665 33.2563ZM40.3854 33.2563C38.9464 33.2563 37.7804 32.0903 37.7804 30.684C37.7804 29.2777 38.9109 28.1118 40.3526 28.1118H40.3881C41.7943 28.1118 42.9603 29.2777 42.9603 30.684C42.9603 32.0903 41.7916 33.2563 40.3854 33.2563Z" fill="#0A84FF"/>
</g>
<defs>
<filter id="filter0_i_19_686" x="0" y="0" width="60" height="64" filterUnits="userSpaceOnUse" color-interpolation-filters="sRGB">
<feFlood flood-opacity="0" result="BackgroundImageFix"/>
<feBlend mode="normal" in="SourceGraphic" in2="BackgroundImageFix" result="shape"/>
<feColorMatrix in="SourceAlpha" type="matrix" values="0 0 0 0 0 0 0 0 0 0 0 0 0 0 0 0 0 0 127 0" result="hardAlpha"/>
<feOffset dy="4"/>
<feGaussianBlur stdDeviation="2"/>
<feComposite in2="hardAlpha" operator="arithmetic" k2="-1" k3="1"/>
<feColorMatrix type="matrix" values="0 0 0 0 0 0 0 0 0 0 0 0 0 0 0 0 0 0 0.25 0"/>
<feBlend mode="normal" in2="shape" result="effect1_innerShadow_19_686"/>
</filter>
</defs>
</svg>
