<svg width="25" height="25" viewBox="0 0 25 25" fill="none" xmlns="http://www.w3.org/2000/svg">
<path d="M22.5788 12.5396C22.5797 12.2717 22.7411 12.0304 22.9882 11.9272L25 11.0877C24.9291 10.4663 24.8119 9.84822 24.65 9.24432C24.4883 8.64065 24.2808 8.04663 24.0315 7.4728L21.8695 7.75167C21.604 7.78618 21.3436 7.65768 21.2088 7.42619C20.7806 6.69002 20.2577 6.00911 19.6546 5.40244C19.4657 5.21246 19.409 4.92771 19.511 4.67992L20.3401 2.66305C19.3559 1.87927 18.2691 1.25174 17.099 0.791768L15.7669 2.51823C15.6031 2.73041 15.3287 2.82362 15.0694 2.75515C14.2423 2.53621 13.3912 2.4238 12.5396 2.42091C12.2717 2.42002 12.0304 2.25867 11.9272 2.01155L11.0878 0C10.4661 0.0710205 9.84797 0.188205 9.2444 0.349998C8.64061 0.511792 8.04659 0.719305 7.47287 0.968542L7.75163 3.1299C7.78603 3.39567 7.65763 3.65589 7.42615 3.79061C6.68897 4.2194 6.00795 4.7424 5.40182 5.34518C5.21173 5.53405 4.92698 5.59065 4.67918 5.48878L2.66307 4.65995C1.87929 5.64402 1.25175 6.73075 0.791664 7.90103L2.51848 9.23322C2.73054 9.3969 2.82398 9.67166 2.7554 9.93067C2.53645 10.7582 2.42404 11.6093 2.42116 12.4603C2.42027 12.7282 2.25892 12.9695 2.01179 13.0727L0 13.9121C0.0710212 14.534 0.188206 15.1521 0.34989 15.7556C0.511685 16.3591 0.719089 16.9532 0.968551 17.5271L3.13059 17.2481C3.39725 17.215 3.65648 17.3423 3.79131 17.5737C4.21965 18.3101 4.74255 18.9909 5.34545 19.5974C5.53432 19.7874 5.59103 20.0721 5.48905 20.32L4.65987 22.337C5.64418 23.1208 6.73092 23.7484 7.90099 24.2082L9.23309 22.4817C9.36092 22.3158 9.55701 22.2225 9.7602 22.2225C9.8169 22.2225 9.87405 22.2298 9.93064 22.2447C10.7577 22.4637 11.6089 22.5761 12.4604 22.579C12.7283 22.5799 12.9696 22.7412 13.0728 22.9883L13.9123 25C14.5337 24.929 15.1517 24.8118 15.7556 24.65C16.3593 24.4882 16.9533 24.2808 17.5271 24.0313L17.2484 21.87C17.214 21.6043 17.3424 21.3441 17.5739 21.2094C18.3113 20.7803 18.9923 20.2573 19.5982 19.6547C19.7883 19.4657 20.0729 19.4091 20.3208 19.5111L22.3369 20.3399C23.1206 19.356 23.7481 18.2693 24.2082 17.0989L22.4815 15.7667C22.2694 15.603 22.176 15.3282 22.2446 15.0691C22.4637 14.2421 22.576 13.391 22.5788 12.5396ZM14.1128 18.5193C13.576 18.6631 13.0311 18.7342 12.4898 18.7343C11.41 18.7343 10.3443 18.4511 9.38412 17.8967C7.94261 17.0645 6.91158 15.7207 6.48068 14.1128C6.04989 12.505 6.27095 10.8257 7.10322 9.38425C7.9355 7.94276 9.27925 6.91163 10.8871 6.48073C14.206 5.59153 17.63 7.56813 18.5192 10.8871C19.4086 14.206 17.4318 17.6298 14.1128 18.5193Z" fill="white"/>
</svg>
