<svg width="30" height="30" viewBox="0 0 30 30" fill="none" xmlns="http://www.w3.org/2000/svg">
<path d="M14.736 29.4899C15.2334 29.4899 15.7359 29.4644 16.229 29.415C16.8282 29.3546 17.2652 28.8197 17.2049 28.2194C17.1445 27.6198 16.6093 27.1832 16.0101 27.2429C15.5898 27.2851 15.1607 27.3069 14.7353 27.3069C7.81306 27.3069 2.18088 21.6712 2.18088 14.7446C2.18088 7.81799 7.81306 2.18225 14.736 2.18225C21.659 2.18225 27.2904 7.81799 27.2904 14.7446C27.2904 15.3442 27.2483 15.9467 27.1639 16.5361C27.0788 17.1328 27.4933 17.6858 28.0896 17.7709C28.6859 17.8561 29.2386 17.4413 29.3237 16.8446C29.4219 16.1541 29.4721 15.4475 29.4721 14.7453C29.4721 6.61444 22.8618 0 14.736 0C6.61027 0 0 6.61444 0 14.7446C0 22.8747 6.61027 29.4899 14.736 29.4899Z" fill="white" fill-opacity="0.7"/>
<path d="M14.7273 3.72632C14.1252 3.72632 13.6365 4.21531 13.6365 4.81781V14.7453C13.6365 15.259 13.9943 15.7029 14.4953 15.812L20.3268 17.0803C20.4046 17.0971 20.4824 17.1051 20.5595 17.1051C21.0612 17.1051 21.5136 16.7558 21.6241 16.245C21.7521 15.6563 21.3783 15.0749 20.79 14.9468L15.8174 13.8655V4.81781C15.8174 4.21531 15.3287 3.72632 14.7266 3.72632H14.7273Z" fill="white" fill-opacity="0.7"/>
</svg>
