<svg width="30" height="30" viewBox="0 0 30 30" fill="none" xmlns="http://www.w3.org/2000/svg">
<path d="M14.736 29.4899C15.2334 29.4899 15.7359 29.4644 16.229 29.415C16.8282 29.3546 17.2652 28.8197 17.2049 28.2194C17.1445 27.6198 16.6093 27.1832 16.0101 27.2429C15.5898 27.2851 15.1607 27.3069 14.7353 27.3069C7.81306 27.3069 2.18088 21.6712 2.18088 14.7446C2.18088 7.81799 7.81306 2.18225 14.736 2.18225C21.659 2.18225 27.2904 7.81799 27.2904 14.7446C27.2904 15.3442 27.2483 15.9467 27.1639 16.5361C27.0788 17.1328 27.4933 17.6858 28.0896 17.7709C28.6859 17.8561 29.2386 17.4413 29.3237 16.8446C29.4219 16.1541 29.4721 15.4475 29.4721 14.7453C29.4721 6.61444 22.8618 0 14.736 0C6.61027 0 0 6.61444 0 14.7446C0 22.8747 6.61027 29.4899 14.736 29.4899Z" fill="white" fill-opacity="0.7"/>
<path d="M14.7273 3.72632C14.1252 3.72632 13.6365 4.21531 13.6365 4.81781V14.7453C13.6365 15.259 13.9943 15.7029 14.4953 15.812L20.3268 17.0803C20.4046 17.0971 20.4824 17.1051 20.5595 17.1051C21.0612 17.1051 21.5136 16.7558 21.6241 16.245C21.7521 15.6563 21.3783 15.0749 20.79 14.9468L15.8174 13.8655V4.81781C15.8174 4.21531 15.3287 3.72632 14.7266 3.72632H14.7273Z" fill="white" fill-opacity="0.7"/>
<path d="M24.9183 18.7387C24.9183 18.1362 24.4296 17.6472 23.8275 17.6472C23.2254 17.6472 22.7367 18.1362 22.7367 18.7387C22.7367 20.1569 20.1631 22.7321 18.7458 22.7321C18.1437 22.7321 17.655 23.2211 17.655 23.8236C17.655 24.4261 18.1437 24.9151 18.7458 24.9151C20.1631 24.9151 22.7367 27.4903 22.7367 28.9085C22.7367 29.511 23.2254 30 23.8275 30C24.4296 30 24.9183 29.511 24.9183 28.9085C24.9183 27.4903 27.4919 24.9151 28.9092 24.9151C29.5113 24.9151 30 24.4261 30 23.8236C30 23.2211 29.5113 22.7321 28.9092 22.7321C27.4919 22.7321 24.9183 20.1569 24.9183 18.7387ZM24.8347 24.8321C24.5831 25.0839 24.1984 25.4994 23.8275 26.0204C23.4559 25.4987 23.0719 25.0832 22.8203 24.8321C22.5687 24.5811 22.1535 24.1954 21.6328 23.8243C22.1542 23.4525 22.5694 23.0683 22.8203 22.8165C23.0719 22.5647 23.4566 22.1493 23.8275 21.6282C24.1991 22.15 24.5831 22.5655 24.8347 22.8165C25.0863 23.0683 25.5015 23.4532 26.0222 23.8243C25.5008 24.1962 25.0856 24.5804 24.8347 24.8321Z" fill="white" fill-opacity="0.7"/>
</svg>
