<svg width="30" height="30" viewBox="0 0 30 30" fill="none" xmlns="http://www.w3.org/2000/svg">
<path d="M15 0C12.0333 0 9.13319 0.879735 6.66645 2.52796C4.19971 4.17618 2.27713 6.51885 1.14181 9.25975C0.00649921 12.0006 -0.290551 15.0166 0.288227 17.9263C0.867006 20.8361 2.29562 23.5088 4.3934 25.6066C6.49119 27.7044 9.16394 29.133 12.0736 29.7118C14.9834 30.2906 17.9994 29.9935 20.7403 28.8582C23.4811 27.7229 25.8238 25.8003 27.472 23.3335C29.1203 20.8668 30 17.9667 30 15C29.9955 11.0231 28.4137 7.21043 25.6016 4.39836C22.7896 1.58628 18.9769 0.00448998 15 0ZM7.02884 3.42361C7.08549 3.66966 7.12636 3.98826 7.14603 4.14321C7.16183 4.26682 7.17603 4.37714 7.19056 4.46273C7.28789 4.85351 7.28835 5.26215 7.19192 5.65315C7.05345 6.05278 6.73943 6.34324 6.14112 6.62475C6.0425 6.67144 5.94429 6.71653 5.84679 6.76118C5.19162 7.06193 4.51414 7.37297 3.95635 8.03421C3.17597 8.95936 2.78469 9.07767 2.62426 9.08203C2.59072 9.08088 2.51232 9.0779 2.40465 8.92959C2.38779 8.90684 2.36886 8.8857 2.34812 8.86643C3.41479 6.68012 5.02687 4.80558 7.02884 3.42361ZM1.07598 13.0485C1.59875 13.071 3.04871 13.2106 3.10102 14.0675C3.04437 14.748 3.05299 15.4324 3.12676 16.1112C3.23834 17.0881 3.93849 17.6882 4.55635 18.2178C5.11723 18.6985 5.60166 19.1137 5.64732 19.7275C5.64185 20.0812 5.56383 20.43 5.4181 20.7523C5.32371 20.9956 5.24653 21.2453 5.18715 21.4995L5.17491 21.5572C5.05523 21.9898 5.02416 22.4421 5.08358 22.887C5.17742 23.4077 5.11688 23.8721 4.92931 24.0701C4.85502 24.1321 4.76798 24.1768 4.67439 24.2012C4.5808 24.2257 4.48298 24.2291 4.3879 24.2114C3.06657 22.6977 2.08682 20.9172 1.51531 18.9909C0.943808 17.0647 0.793965 15.0379 1.07598 13.0485ZM10.9338 28.4608C12.1132 27.9085 14.5108 27.1829 16.6939 28.9567C14.7604 29.1965 12.798 29.0275 10.9338 28.4608ZM17.8755 28.7659C14.4917 25.312 10.3475 27.67 9.74808 28.0412C8.03405 27.3477 6.47314 26.3239 5.15419 25.028C5.32594 24.9559 5.48105 24.8494 5.60989 24.7149C6.18291 24.1099 6.07796 23.1189 6.00622 22.7209C5.97218 22.3951 6.00137 22.0658 6.09216 21.7511L6.1044 21.6929C6.15537 21.4817 6.22055 21.274 6.29951 21.0715C6.49476 20.6262 6.59124 20.1439 6.58231 19.6577C6.50768 18.6555 5.79507 18.0448 5.16645 17.506C4.60922 17.0283 4.12801 16.6159 4.0583 16.005C3.99045 15.3767 3.98359 14.7432 4.03782 14.1135C4.03921 14.0961 4.03963 14.0786 4.03908 14.0611C4.00383 12.9389 2.95876 12.2218 1.23528 12.1197C1.40281 11.3224 1.64001 10.5413 1.94413 9.78539C2.13036 9.92783 2.356 10.0094 2.59027 10.0188C2.60492 10.0193 2.61957 10.0198 2.63422 10.0198C3.40772 10.0198 4.12869 9.28413 4.67297 8.63869C5.0956 8.13743 5.62501 7.89459 6.23794 7.61329C6.33842 7.56705 6.43983 7.5206 6.54111 7.47276C7.06043 7.22831 7.78484 6.80533 8.07748 5.961C8.23068 5.42142 8.24351 4.85165 8.11477 4.30573C8.10207 4.23066 8.08983 4.1336 8.0761 4.0249C8.04096 3.64249 7.96429 3.26505 7.84744 2.89924C9.51517 1.90916 11.3709 1.27745 13.2963 1.0444C13.3171 1.19006 13.3249 1.33726 13.3197 1.4843L13.3193 1.56555C13.3222 2.016 13.3087 2.32406 13.1026 2.49389C12.9177 2.62425 12.7137 2.72502 12.4979 2.79258C12.3709 2.84088 12.2446 2.88916 12.1236 2.94457C11.5188 3.18781 10.9629 3.53862 10.4831 3.98001C10.1093 4.36181 10.0012 4.73855 10.1619 5.09972C10.1987 5.18258 10.2588 5.25297 10.3349 5.30237C10.4109 5.35177 10.4997 5.37805 10.5904 5.37804C10.6637 5.37791 10.736 5.36059 10.8014 5.32748C10.8669 5.29436 10.9236 5.24637 10.9672 5.18735C11.0107 5.12833 11.0398 5.05993 11.0522 4.98763C11.0645 4.91533 11.0597 4.84114 11.0382 4.77103C11.072 4.72231 11.1105 4.677 11.1532 4.63577C11.5547 4.27926 12.0152 3.9954 12.5141 3.79692C12.6164 3.75 12.7234 3.70971 12.8308 3.66898C13.1435 3.56778 13.437 3.41499 13.6993 3.21694C14.2644 2.7514 14.26 2.06245 14.2568 1.56007L14.2572 1.49184C14.2616 1.31395 14.2524 1.13598 14.2297 0.959484C14.4848 0.94575 14.7415 0.9375 15 0.9375C16.3188 0.937751 17.6309 1.12414 18.8976 1.49116C18.6242 2.06292 18.7467 2.79258 18.8251 3.25242L18.8437 3.36251C18.8784 3.5733 18.9843 4.21486 18.8375 4.39842C18.829 4.40918 18.806 4.43801 18.7005 4.44419C18.6905 4.44487 18.6807 4.44487 18.6708 4.44487C18.2905 4.41651 15.715 4.27345 15.5244 5.78315L15.5261 5.78339C15.5213 5.81187 15.5181 5.84061 15.5165 5.86945C15.5143 6.1496 15.4541 6.42625 15.3397 6.68198C15.5997 6.59722 15.8714 6.55381 16.1449 6.55333C16.2203 6.55333 16.2932 6.56067 16.3664 6.56662C16.4132 6.35552 16.4419 6.14081 16.4523 5.92483L16.4532 5.91042L16.4546 5.90081C16.5103 5.45791 17.7655 5.31302 18.6127 5.38078C18.6239 5.38169 18.6356 5.38237 18.6469 5.38237C18.6857 5.38261 18.7242 5.38216 18.7593 5.37987C18.915 5.37633 19.0681 5.33908 19.208 5.27068C19.348 5.20229 19.4714 5.10437 19.5698 4.98368C19.9771 4.47441 19.8467 3.68294 19.7686 3.20939L19.7492 3.09494C19.6334 2.41469 19.6146 1.99929 19.8241 1.79009C21.8656 2.54111 23.706 3.75335 25.202 5.33235C26.6981 6.91135 27.8093 8.81446 28.4492 10.8934C28.2476 10.9387 28.0545 10.9946 27.8687 11.0538C27.4198 11.1964 27.0322 11.3198 26.5483 11.2163C26.3563 11.1541 26.1761 11.0599 26.0154 10.9378C25.7138 10.7019 25.3535 10.5525 24.9734 10.5059C24.756 10.4934 24.5386 10.5316 24.3385 10.6175C24.1384 10.7033 23.9609 10.8345 23.8201 11.0007C23.6794 11.1668 23.5791 11.3634 23.5273 11.5749C23.4755 11.7865 23.4735 12.0071 23.5215 12.2195C23.5711 12.4003 23.6451 12.5735 23.7416 12.7343C23.8074 12.8407 23.8594 12.9551 23.8962 13.0747C23.8763 13.0879 23.7996 13.1161 23.5166 13.0882C23.3876 13.0672 23.2613 13.0323 23.1398 12.9842C22.8191 12.8419 22.4632 12.7986 22.1177 12.8597C21.936 12.9006 21.7663 12.9827 21.6214 13.0997C21.4766 13.2166 21.3606 13.3653 21.2824 13.5342C21.1903 13.753 21.1474 13.9894 21.1567 14.2265C21.1661 14.4637 21.2274 14.696 21.3364 14.9068C21.7113 15.6555 22.2518 15.8766 22.7287 16.0716C22.9556 16.1541 23.1719 16.2635 23.3728 16.3973C23.41 16.4194 23.4414 16.4499 23.4646 16.4864C23.476 16.5868 23.2284 16.8883 23.1227 17.0171C23.0425 17.1146 22.9595 17.2158 22.8904 17.3163C22.7578 17.509 22.6104 17.6951 22.4545 17.8921C22.0575 18.343 21.7371 18.8559 21.5059 19.4103C21.348 19.8994 21.2578 20.4077 21.2378 20.9212C21.2194 21.2662 21.1726 21.6092 21.0978 21.9466C20.9908 22.2653 20.8156 22.5569 20.5845 22.801C20.1574 23.2871 19.6695 23.7163 19.133 24.0781C18.7894 24.3251 18.3143 24.5522 18.003 24.2324C17.6023 23.7785 17.3361 23.2217 17.2346 22.6247C17.1821 22.3303 17.1554 22.0319 17.1548 21.7328C17.1607 21.2804 17.1012 20.8296 16.978 20.3943C16.9219 20.2348 16.8527 20.0803 16.7712 19.9322C16.6673 19.7811 16.6078 19.604 16.5994 19.4208C16.6422 19.0694 16.6125 18.7128 16.5122 18.3733C16.2727 18.5482 15.9837 18.6424 15.6871 18.6424H15.6107C15.6783 18.8642 15.6974 19.0979 15.6665 19.3277C15.6495 19.6929 15.7447 20.0545 15.9391 20.3641C15.9967 20.4677 16.0463 20.5756 16.0873 20.6868C16.1803 21.0382 16.2243 21.4007 16.2179 21.7642C16.2194 22.1193 16.253 22.4736 16.3182 22.8227C16.4555 23.5921 16.8067 24.3073 17.3314 24.8865C17.464 25.027 17.6241 25.1387 17.8018 25.2145C17.9794 25.2904 18.1708 25.3289 18.364 25.3276C18.8428 25.3059 19.3029 25.1352 19.68 24.8394C20.2846 24.4302 20.8332 23.9437 21.3119 23.3924C21.6307 23.0438 21.8679 22.6286 22.0065 22.177C22.0947 21.7894 22.1501 21.395 22.1721 20.9981C22.1872 20.5683 22.2593 20.1424 22.3866 19.7317C22.586 19.2726 22.857 18.8482 23.1895 18.4742C23.3483 18.2735 23.5125 18.0661 23.6626 17.8477C23.7136 17.7736 23.7792 17.6948 23.8472 17.612C24.1201 17.2797 24.4598 16.8661 24.3942 16.3646C24.371 16.2165 24.3167 16.075 24.2348 15.9494C24.153 15.8238 24.0455 15.7169 23.9194 15.6358C23.6595 15.4583 23.3787 15.3132 23.0835 15.2039C22.6671 15.0337 22.3919 14.921 22.1748 14.4873C22.1295 14.4022 22.1024 14.3086 22.0952 14.2125C22.0879 14.1164 22.1007 14.0198 22.1326 13.9288C22.1515 13.8876 22.1802 13.8516 22.2162 13.8241C22.2522 13.7965 22.2944 13.7782 22.3391 13.7707C22.5094 13.763 22.679 13.7971 22.833 13.8702C23.0245 13.9444 23.2242 13.9952 23.4278 14.0215C23.6715 14.0449 24.2444 14.0996 24.5975 13.6956C25.0476 13.1783 24.7343 12.5992 24.5661 12.2882C24.5134 12.2001 24.4696 12.1069 24.4353 12.0101C24.4192 11.9402 24.4198 11.8675 24.4368 11.7978C24.4539 11.7281 24.4871 11.6634 24.5337 11.6089C24.5813 11.553 24.6412 11.5088 24.7087 11.4798C24.7761 11.4509 24.8494 11.438 24.9227 11.442C25.1342 11.4895 25.332 11.5851 25.5005 11.7215C25.756 11.9111 26.0449 12.0508 26.3522 12.1333C26.958 12.2411 27.582 12.1767 28.1529 11.9472C28.3294 11.8884 28.5088 11.8386 28.6903 11.7979C29.1191 13.6235 29.1781 15.5164 28.8638 17.3651C28.5495 19.2138 27.8684 20.9808 26.8605 22.5622C25.8526 24.1435 24.5384 25.507 22.9952 26.5725C21.4521 27.6379 19.7113 28.3837 17.8755 28.7659Z" fill="white" fill-opacity="0.7"/>
<path d="M25.3675 18.7625C25.3221 18.8035 25.2853 18.853 25.2592 18.9083C25.2331 18.9635 25.2182 19.0234 25.2154 19.0845C25.2127 19.1456 25.222 19.2066 25.243 19.264C25.264 19.3214 25.2962 19.3741 25.3377 19.419C25.3862 19.5082 25.3913 20.0061 24.9758 20.7376C24.5529 21.4807 24.0777 21.7845 23.9509 21.7858C23.8267 21.784 23.7069 21.8316 23.6178 21.918C23.5286 22.0044 23.4774 22.1227 23.4753 22.2468C23.4733 22.371 23.5205 22.4909 23.6068 22.5802C23.693 22.6695 23.8112 22.721 23.9353 22.7233H23.951C24.6693 22.7233 25.3898 21.9058 25.7908 21.2008C26.2246 20.4373 26.5487 19.3487 26.0347 18.7939C25.95 18.702 25.8324 18.6471 25.7076 18.6413C25.5827 18.6354 25.4605 18.679 25.3675 18.7625Z" fill="white" fill-opacity="0.7"/>
<path d="M9.88929 14.1085C9.72553 15.7715 10.2652 16.8654 11.5391 17.4527L11.6769 17.5165C12.1505 17.7688 12.6636 17.9389 13.1941 18.0196C12.9969 17.7287 12.9177 17.3737 12.9726 17.0265C12.6627 16.9322 12.3614 16.8116 12.072 16.6662L11.9317 16.6012C11.0414 16.1909 10.6992 15.4504 10.8222 14.2009C10.9075 13.5651 11.1774 12.9682 11.5987 12.4844C12.0199 12.0005 12.5739 11.6509 13.1919 11.4789C13.3324 11.4434 13.4747 11.4159 13.6182 11.3965V10.4548C13.397 10.4776 13.1777 10.5162 12.962 10.5702C12.1561 10.7877 11.4334 11.2405 10.886 11.8707C10.3387 12.501 9.99168 13.2801 9.88929 14.1085Z" fill="white" fill-opacity="0.7"/>
<path d="M16.1558 17.2362C16.1558 17.1119 16.1064 16.9926 16.0185 16.9047C15.9306 16.8168 15.8114 16.7674 15.6871 16.7674H15.4932V12.0294C15.5729 11.9329 15.6723 11.8545 15.7846 11.7995C15.897 11.7444 16.0198 11.7139 16.1449 11.7101C16.5262 11.7101 16.9679 11.9726 17.4356 12.2505C17.9917 12.581 18.5665 12.9227 19.2054 12.9227C19.4943 12.9139 19.7775 12.8398 20.0336 12.7058C20.2897 12.5719 20.5122 12.3816 20.6842 12.1493C20.7552 12.0648 20.7942 11.958 20.7943 11.8476V8.56592C20.7943 8.46978 20.7647 8.37596 20.7096 8.29719C20.6545 8.21841 20.5765 8.15848 20.4862 8.12553C20.3958 8.09257 20.2976 8.08819 20.2047 8.11296C20.1118 8.13773 20.0288 8.19047 19.9668 8.26402C19.6357 8.6577 19.3737 8.70324 19.2055 8.70324C18.8241 8.70324 18.3824 8.44072 17.9147 8.16284C17.3586 7.83256 16.7837 7.49084 16.1449 7.49084C15.8559 7.49959 15.5727 7.57371 15.3166 7.70763C15.0604 7.84154 14.8379 8.03177 14.6658 8.26402C14.5948 8.34859 14.5558 8.45548 14.5557 8.56592V16.7674H14.3619C14.2375 16.7674 14.1183 16.8168 14.0304 16.9047C13.9425 16.9926 13.8931 17.1119 13.8931 17.2362C13.8931 17.3605 13.9425 17.4797 14.0304 17.5676C14.1183 17.6555 14.2375 17.7049 14.3619 17.7049H15.6871C15.8114 17.7049 15.9306 17.6555 16.0185 17.5676C16.1064 17.4797 16.1558 17.3605 16.1558 17.2362ZM15.4932 8.74672C15.5729 8.65026 15.6722 8.57195 15.7846 8.51704C15.897 8.46213 16.0198 8.43189 16.1449 8.42834C16.5262 8.42834 16.968 8.69089 17.4358 8.96874C17.9917 9.29926 18.5667 9.64074 19.2055 9.64074C19.4292 9.64124 19.6508 9.59648 19.8568 9.50914V11.6668C19.7771 11.7632 19.6778 11.8415 19.5655 11.8964C19.4531 11.9513 19.3304 11.9816 19.2054 11.9852C18.8242 11.9852 18.3823 11.7226 17.9147 11.4446C17.3586 11.1143 16.7837 10.7726 16.1449 10.7726C15.921 10.7721 15.6993 10.817 15.4932 10.9044V8.74672Z" fill="white" fill-opacity="0.7"/>
</svg>
